<?xml version="1.0" encoding="UTF-8" standalone="no"?>
<svg
   width="24"
   height="24"
   viewBox="0 0 24 24"
   fill="none"
   stroke="currentColor"
   stroke-width="2"
   stroke-linecap="round"
   stroke-linejoin="round"
   class="feather feather-wind"
   version="1.1"
   id="svg4098"
   sodipodi:docname="wind.svg"
   inkscape:version="1.2.2 (b0a8486, 2022-12-01)"
   xmlns:inkscape="http://www.inkscape.org/namespaces/inkscape"
   xmlns:sodipodi="http://sodipodi.sourceforge.net/DTD/sodipodi-0.dtd"
   xmlns="http://www.w3.org/2000/svg"
   xmlns:svg="http://www.w3.org/2000/svg">
  <defs
     id="defs4102" />
  <sodipodi:namedview
     id="namedview4100"
     pagecolor="#ffffff"
     bordercolor="#000000"
     borderopacity="0.25"
     inkscape:showpageshadow="2"
     inkscape:pageopacity="0.0"
     inkscape:pagecheckerboard="0"
     inkscape:deskcolor="#d1d1d1"
     showgrid="false"
     inkscape:zoom="16.619803"
     inkscape:cx="22.112176"
     inkscape:cy="11.672822"
     inkscape:window-width="1680"
     inkscape:window-height="1050"
     inkscape:window-x="0"
     inkscape:window-y="0"
     inkscape:window-maximized="0"
     inkscape:current-layer="svg4098" />
  <g
     id="g9052">
    <path
       style="color:#000000;fill:#000000;-inkscape-stroke:none;stroke:none"
       d="M 20.175781,6.0898437 C 19.0846,5.8722198 17.893232,6.1538897 17.023437,7.0214844 a 1,1 0 0 0 -0.002,1.4140625 1,1 0 0 0 1.414063,0.00195 C 19.216556,7.6584666 20.458455,7.9067596 20.880859,8.9257813 21.303264,9.9448022 20.601162,10.998026 19.498047,11 H 2 a 1,1 0 0 0 -1,1 1,1 0 0 0 1,1 h 17.5 a 1.0001,1.0001 0 0 0 0.002,0 C 21.95899,12.995604 23.66937,10.429899 22.728516,8.1601563 22.258089,7.0252845 21.266963,6.3074677 20.175781,6.0898437 Z"
       id="path6093" />
    <path
       style="color:#000000;fill:#000000;stroke:none;-inkscape-stroke:none"
       d="m 6,15 c 12.103347,2.000857 -0.088568,-0.07229 12,2 0.0013,3e-6 0.0026,3e-6 0.0039,0 0.749731,-0.0031 1.214214,0.689982 0.927735,1.382812 -0.286479,0.692833 -1.104242,0.853979 -1.632813,0.322266 -0.389429,-0.391502 -1.022479,-0.393248 -1.414062,-0.0039 -0.391502,0.389429 -0.393248,1.022479 -0.0039,1.414062 1.485559,1.494388 4.095231,0.978484 4.900391,-0.96875 C 21.585899,17.200492 20.104993,14.99398 18,15 Z"
       id="path6091"
       sodipodi:nodetypes="cccscccscc" />
    <path
       style="color:#000000;fill:#000000;stroke:none;-inkscape-stroke:none"
       d="m 13.585938,3.078125 c -0.938642,-0.1855676 -1.962299,0.059447 -2.705079,0.8066406 -0.389349,0.3915829 -0.387603,1.0246332 0.0039,1.4140625 0.391586,0.3893456 1.024635,0.3875952 1.414062,-0.00391 0.528578,-0.5317087 1.346341,-0.370562 1.63282,0.3222694 C 14.21812,6.3100189 13.753636,7.0031478 13.003906,7 c -0.0013,-2.5e-6 -0.0026,-2.5e-6 -0.0039,0 -8.9866757,2.037478 -0.07949,-0.01958 -9,2 h 8.996094 C 15.103225,9.008847 16.586412,6.8007485 15.78125,4.8535156 15.37867,3.8798991 14.524579,3.2636926 13.585938,3.078125 Z"
       id="path4096"
       sodipodi:nodetypes="scccsscccss" />
  </g>
</svg>
