<?xml version="1.0" encoding="UTF-8"?>
<svg version="1.0" viewBox="0 0 60 60" xmlns="http://www.w3.org/2000/svg" fill="currentColor" stroke="none" stroke-width="2" stroke-linecap="round" stroke-linejoin="round">
<path d="m11.333 16.946c1.5416-1.6609 3.0832-3.3217 4.6248-4.9826-1.5583-1.7768-3.3431-3.3802-4.709-5.304-1.1683-2.612 2.5061-5.0088 4.5131-3.0685 1.2248 1.3676 2.3132 2.8548 3.4773 4.2755 1.3589-1.5514 2.4251-3.4089 4.062-4.675 2.5709-1.4888 5.5763 2.1442 3.383 4.2671-1.3742 1.5141-2.7772 3.0019-4.1635 4.505 1.7721 2.0201 3.7936 3.8451 5.3705 6.0184 1.3927 2.2454-1.4638 5.0979-3.7051 3.7225-1.8647-1.6392-3.2919-3.7127-4.9469-5.5591-1.6476 1.8306-3.0577 3.8998-4.9121 5.5243-2.2122 1.4304-5.0797-1.3599-3.7921-3.6355 0.22101-0.3932 0.49994-0.7507 0.79788-1.088z"/>
<path d="m35.093 52.176c0.60639-1.3772 1.2128-2.7544 1.8192-4.1316-1.8613-4.5858-3.8667-9.1172-5.6167-13.745-1.3067-3.3985 4.5598-4.7276 5.2598-1.2987 1.0716 2.794 2.1432 5.5881 3.2148 8.3821 1.293-3.0098 2.313-6.1489 3.832-9.0522 1.2431-2.7709 5.6676-0.96769 4.8976 1.8412-0.8843 2.9896-2.3413 5.7843-3.4912 8.683-1.9305 4.4477-3.7183 8.9622-5.7461 13.364-1.1204 2.7344-5.8009 1.2528-5.027-1.6629 0.1255-0.84014 0.5491-1.5983 0.85773-2.3802z"/>
<path d="m12.419 36.375c11.793-6.9448 23.586-13.89 35.38-20.835" fill="none" stroke="currentColor" stroke-linecap="round" stroke-linejoin="round" stroke-width="5"/>
</svg>
